<svg width="883" height="319" viewBox="0 0 883 319" fill="none" xmlns="http://www.w3.org/2000/svg">
<path fill-rule="evenodd" clip-rule="evenodd" d="M681.342 120.677C674.787 120.677 669.014 115.935 667.937 109.269C666.742 101.873 671.782 94.9105 679.195 93.7179C684.542 92.8579 689.81 91.8442 695.387 90.7703C697.606 90.3435 699.825 89.9166 702.045 89.4997C704.42 89.0295 706.769 88.5299 709.254 88.0016C710.647 87.7051 712.038 87.4095 713.431 87.1192L715.445 86.695C718.62 86.0275 721.619 85.3967 724.595 84.6827L724.704 84.6576L736.239 81.9919C738.611 81.4547 740.928 80.8673 743.383 80.2454C744.753 79.8986 746.124 79.5512 747.496 79.2139C748.865 78.865 750.237 78.5244 751.609 78.1839C754.074 77.5714 756.402 76.9929 758.717 76.3657L775.773 71.7599L792.74 66.8623C795.084 66.1938 797.379 65.4835 799.808 64.7318C801.178 64.3071 802.547 63.8834 803.92 63.4686L815.067 60.0382C817.714 59.1714 820.363 58.3131 823.013 57.4552C827.741 55.9241 832.631 54.3408 837.385 52.7412L851.018 48.068C853.942 47.0684 856.704 46.1247 859.452 45.1147C866.497 42.5244 874.313 46.1237 876.908 53.1539C879.505 60.1841 875.897 67.9822 868.852 70.5715C865.811 71.6893 862.771 72.7287 859.831 73.734L846.147 78.423C841.173 80.0979 836.208 81.7058 831.405 83.2609C828.747 84.1214 826.088 84.9824 823.431 85.8523L823.197 85.9271L811.866 89.414C810.486 89.8309 809.175 90.2373 807.864 90.6427C805.399 91.4064 802.849 92.1957 800.253 92.9353L782.995 97.9156L765.832 102.55C763.252 103.249 760.672 103.891 758.175 104.511C756.84 104.842 755.506 105.173 754.174 105.514L754.048 105.545C752.722 105.87 751.398 106.205 750.074 106.541C747.564 107.177 744.969 107.835 742.317 108.436L730.891 111.076C727.562 111.872 724.253 112.569 721.052 113.242L719.029 113.668C717.63 113.96 716.276 114.247 714.923 114.535C712.432 115.065 709.857 115.613 707.27 116.125L707.133 116.152C704.933 116.563 702.735 116.986 700.538 117.41C695.003 118.474 689.282 119.576 683.523 120.502C682.791 120.62 682.062 120.677 681.342 120.677Z" fill="#59CBE8"/>
<path fill-rule="evenodd" clip-rule="evenodd" d="M558.839 140.6C551.556 140.6 544.314 140.483 537.125 140.25C522.777 139.677 511.883 138.99 501.739 138.021C491.147 137.106 479.647 135.743 466.584 133.852C461.276 133.084 457.597 128.169 458.368 122.873C459.137 117.576 464.06 113.901 469.371 114.674C482.08 116.513 493.23 117.836 503.459 118.719L503.548 118.727C513.334 119.662 523.906 120.328 537.83 120.884C560.281 121.613 583.396 121.162 606.456 119.541C628.372 118.02 650.698 115.383 674.718 111.478C696.574 107.915 719.262 103.321 742.148 97.8259C747.367 96.5736 752.607 99.777 753.862 104.98C755.116 110.183 751.907 115.415 746.693 116.667C723.341 122.274 700.178 126.963 677.845 130.604C653.227 134.606 630.32 137.31 607.812 138.872C591.45 140.022 575.049 140.6 558.839 140.6Z" fill="#9063CD"/>
<path fill-rule="evenodd" clip-rule="evenodd" d="M-295.514 183.129C-297.67 183.129 -299.839 182.415 -301.641 180.951C-305.799 177.571 -306.423 171.468 -303.037 167.319C-297.762 160.859 -292.336 154.67 -288.198 150.001L-288.125 149.918C-282.446 143.654 -277.617 138.423 -272.508 133.251C-262.002 122.469 -250.739 111.959 -239.078 102.057C-215.464 81.9457 -190.035 64.4225 -163.506 49.9849C-136.29 35.1571 -107.591 23.4683 -78.2114 15.2449C-49.1572 7.08693 -18.5917 2.0983 12.6281 0.419202C17.9873 0.135168 22.5586 4.22933 22.8475 9.57314C23.1363 14.9164 19.0289 19.4819 13.6739 19.7696C-16.122 21.3718 -45.269 26.1266 -72.958 33.9012C-100.936 41.7322 -128.268 52.866 -154.203 66.995C-179.558 80.7944 -203.875 97.5529 -226.48 116.806C-237.689 126.324 -248.502 136.414 -258.629 146.807C-263.533 151.77 -268.19 156.817 -273.685 162.878C-277.697 167.406 -282.94 173.386 -287.979 179.559C-289.898 181.909 -292.694 183.129 -295.514 183.129Z" fill="#9063CD"/>
<path fill-rule="evenodd" clip-rule="evenodd" d="M562.465 131.607H562.42L559.251 131.599C554.026 131.589 548.624 131.578 543.205 131.395C538.045 131.313 532.918 131.068 527.958 130.831C526.645 130.768 525.331 130.705 524.017 130.645L523.805 130.634C509.046 129.731 496.815 128.66 485.311 127.264C471.628 125.596 459.13 123.723 447.097 121.537C434.613 119.252 421.911 116.579 409.324 113.59C386.445 108.103 362.226 101.18 335.253 92.418C318.199 86.8917 300.959 80.9651 284.287 75.2337C277.117 72.769 269.939 70.3016 262.746 67.8541C255.64 65.4369 251.843 57.7283 254.266 50.6379C256.689 43.5465 264.413 39.7578 271.521 42.176C278.741 44.6324 285.946 47.1092 293.144 49.5833C309.703 55.276 326.827 61.1623 343.661 66.618C369.956 75.16 393.501 81.8926 415.649 87.2034C427.749 90.0772 439.984 92.6518 451.986 94.8493C463.473 96.9364 475.456 98.7311 488.6 100.333C499.519 101.658 511.206 102.68 525.363 103.548C526.662 103.608 527.961 103.67 529.26 103.732C534.264 103.971 538.99 104.197 543.751 104.271L544.009 104.277C549.031 104.449 554.022 104.459 559.305 104.469L562.51 104.477C570.018 104.502 576.084 110.595 576.059 118.087C576.034 125.563 569.952 131.607 562.465 131.607Z" fill="#FF7F41"/>
<path fill-rule="evenodd" clip-rule="evenodd" d="M-66.7931 47.1631C-71.9327 47.1631 -76.6383 43.7438 -78.038 38.5553C-79.7108 32.3547 -76.0291 25.9747 -69.8148 24.3055C-8.95166 7.95814 59.6471 6.35751 134.073 19.5475C140.409 20.6706 144.633 26.7059 143.508 33.0284C142.382 39.3509 136.332 43.5633 129.997 42.4434C58.9656 29.8544 -6.22301 31.3075 -63.7573 46.7604C-64.7711 47.0329 -65.7908 47.1631 -66.7931 47.1631Z" fill="#F5B6CD"/>
<path fill-rule="evenodd" clip-rule="evenodd" d="M373.78 117.076C372.54 117.076 371.28 116.906 370.028 116.548C341.354 108.349 313.053 98.7516 284.169 88.8162L280.979 87.7188C254.575 78.6391 227.273 69.2493 200.311 61.357C193.106 59.2485 188.979 51.7114 191.092 44.5227C193.206 37.3329 200.762 33.2162 207.964 35.3243C235.534 43.3938 263.141 52.8883 289.838 62.07L293.029 63.1669C321.556 72.9799 349.482 82.4519 377.518 90.4681C384.736 92.5317 388.911 100.043 386.842 107.245C385.133 113.198 379.692 117.076 373.78 117.076Z" fill="#00C389"/>
<path fill-rule="evenodd" clip-rule="evenodd" d="M521.786 210.866C521.255 210.866 520.723 210.848 520.185 210.811C490.393 208.795 459.553 204.495 428.523 198.03C400.76 192.264 371.621 184.517 339.457 174.349C327.186 170.471 320.391 157.402 324.278 145.158C328.166 132.916 341.265 126.134 353.534 130.013C384.178 139.7 411.819 147.056 438.036 152.5C466.986 158.532 495.681 162.538 523.339 164.409C536.181 165.278 545.885 176.371 545.015 189.184C544.18 201.462 533.938 210.866 521.786 210.866Z" fill="#F5B6CD"/>
<path fill-rule="evenodd" clip-rule="evenodd" d="M567.35 242.058C553.105 242.058 538.438 241.626 523.743 240.773L523.609 240.766C509.225 239.86 494.415 238.467 479.592 236.623L479.377 236.596L468.315 235.126L457.884 233.54C455.275 233.158 452.816 232.73 450.437 232.316C449.278 232.115 448.12 231.914 446.96 231.722L446.72 231.68C446.15 231.58 445.579 231.484 445.008 231.387C443.721 231.17 442.434 230.95 441.152 230.71L435.883 229.71C421.13 226.912 411.444 212.711 414.249 197.991C417.053 183.271 431.282 173.605 446.038 176.405L451.256 177.394C452.171 177.566 453.139 177.728 454.108 177.892C454.735 177.999 455.362 178.105 455.989 178.214C457.251 178.424 458.513 178.643 459.774 178.863C461.912 179.234 463.932 179.586 465.84 179.864L476.248 181.445L486.419 182.793C500.093 184.491 513.733 185.775 526.966 186.609C540.739 187.407 554.446 187.802 567.779 187.798C569.974 187.787 572.167 187.751 574.362 187.716C575.604 187.696 576.845 187.677 578.086 187.661L583.082 187.579L588.083 187.396C589.352 187.345 590.623 187.301 591.892 187.256C594.108 187.179 596.203 187.106 598.241 187.001L609.019 186.372C611.185 186.266 613.496 186.078 615.944 185.879C616.873 185.803 617.802 185.727 618.731 185.655C620.012 185.546 621.294 185.446 622.575 185.347C624.727 185.18 626.76 185.022 628.653 184.821C630.29 184.653 631.858 184.494 633.428 184.335C638.861 183.787 643.991 183.268 649.037 182.597L649.467 182.543C663.039 180.956 676.926 178.702 689.917 176.501C715.855 171.868 742.762 165.756 769.9 158.334C784.379 154.372 799.341 162.876 803.311 177.325C807.281 191.776 798.759 206.701 784.276 210.663C755.519 218.529 726.95 225.014 699.365 229.936L699.131 229.977C685.457 232.294 670.771 234.677 656.006 236.41C650.183 237.18 644.451 237.759 638.906 238.32C637.381 238.473 635.857 238.627 634.333 238.785C631.739 239.06 629.221 239.255 626.784 239.444C625.615 239.535 624.445 239.625 623.277 239.726L623.044 239.745C622.153 239.813 621.261 239.886 620.37 239.959C617.635 240.182 614.809 240.411 611.807 240.561L601.161 241.183C598.629 241.314 596.173 241.4 593.796 241.483C592.6 241.525 591.402 241.567 590.206 241.615L590.11 241.618L584.254 241.826L578.838 241.916C577.635 241.931 576.433 241.95 575.23 241.969C572.817 242.008 570.403 242.046 567.988 242.057L567.875 242.058H567.35Z" fill="#00C389"/>
<path fill-rule="evenodd" clip-rule="evenodd" d="M201.897 157.528C199.154 157.528 196.366 157.111 193.613 156.233C149.905 142.295 114.199 134.113 81.2431 130.485L80.9154 130.447C79.7107 130.3 78.3493 130.172 76.9082 130.038C75.9551 129.949 75.002 129.859 74.05 129.762C71.7528 129.535 69.6129 129.325 67.6617 129.205L67.3755 129.187L60.2569 128.68L49.8178 128.211L46.4942 128.155C45.5621 128.143 44.6295 128.126 43.6974 128.107C42.3537 128.081 41.0101 128.054 39.6676 128.051C38.4886 128.07 37.309 128.083 36.1295 128.096C32.5914 128.137 29.25 128.174 26.1245 128.35L25.3895 128.381C22.1167 128.477 18.6562 128.733 14.9918 129.004C13.9753 129.079 12.9594 129.154 11.9429 129.227C10.5856 129.35 9.23049 129.493 7.87534 129.635C6.98152 129.728 6.08717 129.821 5.19283 129.911C4.70425 129.964 4.21513 130.013 3.72602 130.061C3.24005 130.109 2.75409 130.152 2.27127 130.216L-6.51753 131.388L-14.8985 132.758C-15.7519 132.923 -16.6059 133.086 -17.4599 133.249C-21.1589 133.955 -24.6529 134.622 -27.9163 135.398C-42.5199 138.874 -57.188 129.875 -60.6705 115.3C-64.153 100.725 -55.1351 86.0923 -40.5273 82.6175C-36.0728 81.5583 -31.8051 80.7433 -27.6772 79.955C-26.7404 79.7761 -25.8031 79.5972 -24.8663 79.4162L-24.0799 79.2755L-14.141 77.6618L-4.93329 76.4347C-3.68457 76.2678 -2.55064 76.1559 -1.63952 76.0659C-1.29353 76.0314 -0.948586 75.9979 -0.603638 75.9602L-0.340992 75.9325C0.509315 75.8478 1.3591 75.7589 2.20888 75.6699C3.91212 75.4921 5.61484 75.3153 7.32122 75.162L7.83812 75.1202C8.88396 75.0469 9.92877 74.9695 10.9741 74.8921C14.9588 74.5976 19.0751 74.2937 23.4231 74.1567C27.639 73.9291 31.6405 73.8836 35.5141 73.8402C36.6862 73.8261 37.8584 73.8135 39.0301 73.7947L39.471 73.791C41.2287 73.7915 42.987 73.8234 44.7453 73.8569C45.5872 73.8737 46.4291 73.8899 47.2705 73.9003L51.8209 73.9872L63.7813 74.5327L71.1112 75.0548C74.049 75.2363 76.7782 75.5062 79.4193 75.7677L79.5472 75.7798C80.3561 75.8629 81.1655 75.9383 81.9749 76.0141C83.6037 76.1663 85.4438 76.3379 87.3609 76.5696C123.961 80.612 162.99 89.5044 210.168 104.548C224.471 109.11 232.361 124.377 227.79 138.65C224.098 150.175 213.407 157.528 201.897 157.528Z" fill="#59CBE8"/>
<path fill-rule="evenodd" clip-rule="evenodd" d="M287.28 151.674C285.154 151.674 282.993 151.323 280.872 150.584C276.523 149.068 272.17 147.543 267.813 146.018C243.651 137.56 218.666 128.813 193.714 121.14C160.86 111.032 131.837 104.07 104.982 99.857C94.3859 98.1947 87.1467 88.276 88.8127 77.704C90.4793 67.1309 100.417 59.9061 111.016 61.5705C139.721 66.0743 170.515 73.445 205.156 84.1033C230.82 91.9946 256.163 100.867 280.672 109.446C285.014 110.967 289.353 112.485 293.687 113.997C303.812 117.528 309.152 128.58 305.614 138.684C302.816 146.671 295.306 151.674 287.28 151.674Z" fill="#FDDA24"/>
<path fill-rule="evenodd" clip-rule="evenodd" d="M-222.85 214.904C-229.793 214.904 -236.736 212.268 -242.042 206.991C-252.679 196.415 -252.708 179.238 -242.108 168.624C-225 151.493 -206.79 135.903 -187.986 122.288C-168.296 108.025 -147.483 95.5936 -126.13 85.3417C-114.763 79.8969 -103.498 75.1322 -92.6229 71.1704C-81.3597 67.0521 -69.697 63.4073 -57.9861 60.3473L-53.7996 59.2781C-52.1661 58.856 -50.5488 58.4448 -48.7528 58.0577L-39.8717 56.0763L-31.7157 54.4924C-29.8373 54.1116 -28.0764 53.8197 -26.5887 53.5828L-17.5262 52.1244L-13.1478 51.5406C-12.352 51.4407 -11.5567 51.3319 -10.762 51.2231C-8.74159 50.948 -6.45804 50.6368 -3.99466 50.4118L5.02744 49.498L13.4283 48.8865C28.403 47.8048 41.4319 59.0265 42.5249 73.9704C43.6174 88.9138 32.3626 101.912 17.3857 103.003L9.38489 103.585L1.04587 104.438C-0.233276 104.552 -1.77451 104.762 -3.40593 104.984C-4.34485 105.112 -5.28479 105.24 -6.22475 105.359L-9.95677 105.858L-17.9681 107.157C-18.9191 107.308 -20.0153 107.487 -20.9358 107.676L-21.2042 107.73L-29.0971 109.262L-37.2207 111.084C-38.0427 111.259 -39.0523 111.517 -40.192 111.813L-44.2931 112.859C-54.3144 115.48 -64.2895 118.599 -73.9418 122.128C-83.1914 125.498 -92.8152 129.572 -102.573 134.246C-120.979 143.083 -138.976 153.838 -156.043 166.201C-172.519 178.13 -188.514 191.831 -203.59 206.925C-208.902 212.244 -215.876 214.904 -222.85 214.904Z" fill="#FF7F41"/>
<path fill-rule="evenodd" clip-rule="evenodd" d="M595.559 207.871C585.235 207.871 576.642 199.759 576.172 189.364C575.69 178.672 583.985 169.614 594.7 169.133C636.651 167.246 680.995 161.034 726.5 150.667C747.516 145.879 769.385 140.064 791.498 133.386C811.727 127.264 832.683 120.197 855.553 111.782C865.615 108.081 876.783 113.218 880.494 123.261C884.204 133.302 879.055 144.444 868.991 148.147C845.399 156.826 823.735 164.13 802.761 170.478C779.783 177.417 757.037 183.464 735.148 188.452C687.379 199.334 640.715 205.86 596.448 207.851C596.15 207.864 595.854 207.871 595.559 207.871Z" fill="#FDDA24"/>
</svg>
